<?xml version="1.0" encoding="UTF-8"?>
<svg version="1.1" xmlns="http://www.w3.org/2000/svg" width="128" height="182">
<path d="M0 0 C5.42376252 3.72147389 10.67687702 7.66238533 15.91992188 11.63232422 C17.19243513 12.58278165 18.46580489 13.53209399 19.74023438 14.47998047 C22.47646569 16.51809797 25.20196083 18.56987143 27.91992188 20.63232422 C21.76958019 29.07879347 21.76958019 29.07879347 17.91992188 32.63232422 C13.31487845 31.10891666 9.79284462 28.47623855 5.98242188 25.56982422 C3.30061056 23.58291793 0.60993896 21.60810216 -2.08007812 19.63232422 C-2.70221191 19.17180664 -3.3243457 18.71128906 -3.96533203 18.23681641 C-13.31694133 11.3730761 -13.31694133 11.3730761 -24.60351562 10.00341797 C-29.85752642 11.33763837 -33.55700868 13.81446714 -37.01757812 17.94482422 C-39.0226286 23.01642247 -39.71208356 27.46989001 -38.14257812 32.69482422 C-34.49954378 41.03802342 -25.2943314 45.61215904 -17.99804688 50.37060547 C-14.06140296 52.96029179 -10.16467599 55.60866521 -6.26757812 58.25732422 C-5.46731201 58.79566895 -4.6670459 59.33401367 -3.8425293 59.88867188 C9.40578477 68.90298867 9.40578477 68.90298867 13.29492188 75.75732422 C13.77703125 76.58490234 14.25914063 77.41248047 14.75585938 78.26513672 C18.28230234 85.43635966 17.93926946 94.82775598 16.30664062 102.52294922 C13.07685755 111.57203307 7.14950224 117.78912452 -1.33007812 122.13232422 C-10.77897253 126.53854441 -20.65480355 127.1603813 -30.61523438 123.71435547 C-39.7627 119.69874853 -47.78528549 113.03899094 -55.79882812 107.1640625 C-59.47291589 104.47490549 -63.11026754 101.87819315 -67.08007812 99.63232422 C-65.55995135 94.22742903 -61.80622594 90.64739793 -58.08007812 86.63232422 C-52.77974217 88.04250534 -49.21767316 90.47241919 -44.95507812 93.75732422 C-43.63489321 94.74881404 -42.31325833 95.73837594 -40.99023438 96.72607422 C-40.33555176 97.21591797 -39.68086914 97.70576172 -39.00634766 98.21044922 C-36.17953648 100.29705863 -33.30189781 102.28684021 -30.39257812 104.25732422 C-28.99458984 105.20478516 -28.99458984 105.20478516 -27.56835938 106.17138672 C-23.11182639 108.78793827 -19.22237282 108.98095437 -14.08007812 108.63232422 C-8.91821679 106.94136964 -5.3881571 104.98008516 -2.08007812 100.63232422 C0.2612018 95.13726539 0.36105255 90.29480214 -1.85742188 84.75341797 C-6.04306619 77.49206058 -14.49023502 73.24050763 -21.31298828 68.79492188 C-27.30925877 64.84987627 -33.19859517 60.74564495 -39.08007812 56.63232422 C-40.00691406 55.99166016 -40.93375 55.35099609 -41.88867188 54.69091797 C-49.32895713 49.28322329 -54.72751279 42.10939763 -56.63476562 32.97607422 C-57.67626169 23.72962132 -56.5054298 15.45246871 -51.01757812 7.72998047 C-37.51529507 -7.80220663 -17.62994078 -11.59189299 0 0 Z " fill="#9C7A2F" transform="translate(84.080078125,31.36767578125)"/>
<path d="M0 0 C3.5697758 2.08491604 6.93386276 4.43321968 10.3125 6.8125 C11.75314819 7.81313477 11.75314819 7.81313477 13.22290039 8.83398438 C16.15646829 10.87835008 19.07896881 12.93777386 22 15 C22.87946289 15.61536621 23.75892578 16.23073242 24.66503906 16.86474609 C27.09597008 18.56714838 29.51857277 20.28059554 31.9375 22 C32.65139893 22.50249268 33.36529785 23.00498535 34.10083008 23.52270508 C47.24043112 32.98453132 56.06340318 45.69852355 59.3125 61.6875 C61.67654342 78.27839934 57.58670159 93.39425813 48 107 C37.57404595 119.6653315 23.26396967 127.79609947 7 130 C-16.92369335 131.61789944 -34.06146251 122.65927316 -52.85839844 108.59228516 C-54.83050832 107.12601742 -56.81946541 105.68839589 -58.8203125 104.26171875 C-59.92204909 103.46638693 -61.02362438 102.67083161 -62.125 101.875 C-63.07632813 101.19179687 -64.02765625 100.50859375 -65.0078125 99.8046875 C-65.66523437 99.20914063 -66.32265625 98.61359375 -67 98 C-67 93.86218946 -65.28490393 92.79080004 -62.5 89.8125 C-61.6646875 88.91144531 -60.829375 88.01039063 -59.96875 87.08203125 C-59.3190625 86.39496094 -58.669375 85.70789063 -58 85 C-55.08539882 86.38441509 -52.46157909 87.96443758 -49.8046875 89.79296875 C-48.6146814 90.60991211 -48.6146814 90.60991211 -47.40063477 91.44335938 C-46.56717529 92.01892578 -45.73371582 92.59449219 -44.875 93.1875 C-44.01769287 93.77466797 -43.16038574 94.36183594 -42.27709961 94.96679688 C-37.98579732 97.9116404 -33.75012423 100.90897132 -29.5625 104 C-18.72786894 111.65469541 -6.91629888 114.56833121 6.13671875 112.50390625 C17.09195288 110.02109391 26.97238826 104.85893638 33.7265625 95.64453125 C40.59356648 84.73512837 43.18657587 73.78400049 40.30859375 60.90625 C35.04817165 45.23503438 23.58085741 36.90588071 10.43359375 28.01953125 C5.61134393 24.75284589 0.85926852 21.39263077 -3.875 18 C-5.04373657 17.17205933 -5.04373657 17.17205933 -6.23608398 16.32739258 C-6.95997314 15.80685303 -7.6838623 15.28631348 -8.4296875 14.75 C-9.07147949 14.29109375 -9.71327148 13.8321875 -10.37451172 13.359375 C-12.99166321 11.17068478 -13.94515711 9.42960266 -14.375 6.0625 C-14 3 -14 3 -12.1875 0.6875 C-7.88972191 -2.62792881 -4.711749 -2.02874607 0 0 Z " fill="#3E4A52" transform="translate(68,52)"/>
<path d="M0 0 C2.93294378 2.21571165 5.90182396 4.3765821 8.87988281 6.53125 C9.729375 7.14742187 10.57886719 7.76359375 11.45410156 8.3984375 C12.02773437 8.81351563 12.60136719 9.22859375 13.19238281 9.65625 C12.30197744 10.88935435 11.40472577 12.11751564 10.50488281 13.34375 C10.00601563 14.02824219 9.50714844 14.71273437 8.99316406 15.41796875 C6.89687777 18.02354802 4.58788606 20.32604156 2.19238281 22.65625 C1.30679688 22.00140625 0.42121094 21.3465625 -0.49121094 20.671875 C-3.84439337 18.1973217 -7.21007243 15.74021264 -10.57861328 13.28662109 C-12.05930759 12.20358971 -13.5362413 11.11539728 -15.00927734 10.02197266 C-26.97195106 1.06345843 -26.97195106 1.06345843 -40.80761719 -4.34375 C-41.42121094 -4.529375 -42.03480469 -4.715 -42.66699219 -4.90625 C-54.93456195 -7.41349054 -67.78257084 -4.94868251 -78.18261719 1.90625 C-88.22628095 9.60584961 -94.1061777 18.9475387 -95.80761719 31.65625 C-96.58484686 42.92608019 -93.28774062 53.69578154 -86.30371094 62.56640625 C-80.24131849 69.17129467 -72.51950946 73.95270656 -65.18212891 79.00927734 C-61.08879138 81.84843578 -57.04002486 84.74868879 -52.99511719 87.65625 C-52.23666504 88.19596436 -51.47821289 88.73567871 -50.69677734 89.29174805 C-43.34525656 94.57716058 -43.34525656 94.57716058 -40.80761719 97.65625 C-40.24959621 101.56239682 -40.22368901 103.70736671 -42.30761719 107.09375 C-45.7728376 109.25951276 -48.87403581 109.32872859 -52.80761719 108.65625 C-55.71581835 107.28462839 -58.14713722 105.43253383 -60.68261719 103.46875 C-61.40513672 102.93354736 -62.12765625 102.39834473 -62.87207031 101.84692383 C-64.40495218 100.71126661 -65.93252749 99.56841637 -67.45507812 98.41894531 C-70.59133751 96.06902909 -73.77898914 93.79464145 -76.96850586 91.51782227 C-79.9684802 89.37077874 -82.94907755 87.19778402 -85.92822266 85.02197266 C-87.48429188 83.89120476 -89.05261744 82.77732472 -90.62402344 81.66796875 C-102.33077229 73.13731176 -109.30938917 61.5747317 -112.80761719 47.65625 C-114.85900672 31.72489418 -113.49552833 16.25004193 -103.55761719 2.96875 C-102.33341079 1.50922099 -101.08225751 0.0719471 -99.80761719 -1.34375 C-98.76927734 -2.50390625 -98.76927734 -2.50390625 -97.70996094 -3.6875 C-68.42734745 -34.67439258 -29.60652519 -22.47286806 0 0 Z " fill="#144A1E" transform="translate(114.8076171875,22.34375)"/>
</svg>
